<svg width="531" height="1409" viewBox="0 0 531 1409" fill="none" xmlns="http://www.w3.org/2000/svg">
<g clip-path="url(#clip0_1117_380)">
<rect width="531" height="1409" fill="white"/>
<path d="M-323.378 -195.103C-319.398 -195.213 -315.408 -195.423 -311.428 -195.423C-104.218 -195.443 102.992 -195.443 310.202 -195.393C314.432 -195.393 318.792 -196.233 322.922 -194.543C324.542 -191.073 321.662 -189.513 319.982 -187.863C306.272 -174.403 291.642 -162.053 276.772 -149.853C254.002 -131.173 229.752 -114.243 208.682 -93.4828C203.722 -88.5928 198.162 -84.3228 193.212 -79.4228C180.252 -66.6128 168.282 -52.8328 158.292 -37.6328C144.582 -16.7528 134.882 6.26719 128.762 30.3572C124.222 48.2372 121.482 66.6572 120.012 85.1872C118.022 110.297 115.432 135.467 107.452 159.457C98.9016 185.157 82.6516 205.307 59.1416 219.117C36.1416 232.627 11.1116 240.587 -14.6184 247.277C-33.5084 252.187 -52.9884 253.907 -71.6984 259.687C-79.1084 261.977 -87.4684 261.997 -95.3184 262.447C-119.818 263.877 -144.178 268.247 -168.858 266.527C-189.358 265.097 -210.098 264.157 -230.038 259.687C-262.328 252.447 -293.688 241.937 -319.718 219.937C-320.628 219.167 -322.158 219.127 -323.398 218.747C-323.398 80.7972 -323.398 -57.1628 -323.398 -195.113L-323.378 -195.103Z" fill="#F5D755"/>
<path d="M601.581 -32.069C708.001 -32.069 814.431 -32.069 920.851 -32.069C923.181 -32.069 925.541 -31.819 927.831 -32.119C933.241 -32.809 934.991 -30.309 934.391 -25.289C934.201 -23.649 934.361 -21.959 934.361 -20.299C934.361 109.931 934.271 240.161 934.561 370.391C934.581 379.071 932.051 384.171 924.751 388.921C880.981 417.411 832.611 428.871 781.091 428.081C764.971 427.831 748.651 427.211 733.011 421.591C710.611 413.541 690.821 401.521 672.561 386.191C649.051 366.451 629.571 342.931 608.531 320.861C592.481 304.031 576.281 287.461 557.511 273.501C541.621 261.681 524.421 252.761 505.781 246.421C484.561 239.191 462.611 237.031 440.321 236.151C420.141 235.351 399.831 235.391 379.851 232.001C351.471 227.191 329.711 212.411 314.541 187.741C305.471 172.991 298.691 157.251 293.161 140.941C288.601 127.481 284.441 113.881 280.401 100.261C278.511 93.921 277.111 87.321 276.011 80.881C272.571 60.581 268.661 40.361 266.201 19.881C264.351 4.49099 266.801 -10.709 266.321 -25.989C266.201 -29.989 268.031 -32.229 272.301 -32.069C274.961 -31.969 277.621 -32.069 280.281 -32.069C387.371 -32.069 494.461 -32.069 601.551 -32.069H601.581Z" fill="#092792"/>
<path d="M-257.713 334.564C-254.193 336.844 -252.303 333.544 -249.983 332.144C-233.353 322.184 -216.003 314.064 -196.753 310.574C-172.673 306.204 -149.893 311.084 -127.643 320.034C-106.933 328.364 -87.6529 339.504 -68.1229 350.154C-55.5829 356.994 -43.0029 363.764 -30.3829 370.454C-18.3829 376.814 -5.33289 381.254 7.97711 378.734C37.8971 373.074 56.4671 389.164 72.8971 410.224C86.7471 427.974 91.7771 448.934 93.1171 470.834C94.4971 493.364 90.7971 515.254 82.6871 536.364C74.5771 557.474 60.1471 573.844 43.5671 588.514C7.51711 620.404 -35.2529 635.874 -82.7229 638.704C-142.783 642.284 -198.623 627.874 -250.423 597.404C-252.693 596.064 -254.873 594.424 -257.713 594.474V334.564V334.564Z" fill="#092792"/>
<path d="M760.034 459.303C760.034 495.933 759.944 532.563 760.134 569.193C760.164 574.943 758.644 579.103 754.214 583.063C732.624 602.353 713.074 623.693 693.334 644.843C665.364 674.813 632.774 697.623 592.814 708.603C573.704 713.853 554.454 716.313 534.874 710.363C521.374 706.263 510.324 699.233 502.184 687.373C494.294 675.863 487.734 663.473 478.774 652.653C472.914 645.573 466.124 640.013 457.924 636.023C442.774 628.643 426.834 624.443 409.944 624.283C394.984 624.143 380.024 624.373 365.064 624.143C345.464 623.833 327.894 617.873 313.084 604.593C305.614 597.883 299.064 590.273 293.794 581.863C281.754 562.643 271.164 542.703 267.414 519.853C261.574 484.183 268.604 452.393 295.334 426.613C306.284 416.053 319.324 408.783 334.014 404.793C360.284 397.673 387.014 392.493 413.474 386.183C445.424 378.563 477.494 371.233 507.084 356.033C519.164 349.823 529.044 341.343 537.754 331.043C556.174 309.283 577.194 290.623 603.034 277.953C636.544 261.513 669.164 263.683 700.804 282.903C723.624 296.763 741.334 316.053 757.424 337.053C760.394 340.933 760.004 345.153 760.004 349.423C760.034 386.053 760.024 422.683 760.024 459.313L760.034 459.303Z" fill="#F5D755"/>
<path d="M718.554 817.105C718.554 822.185 718.554 825.835 718.554 829.475C718.554 1064.97 718.564 1300.47 718.524 1535.97C718.524 1550.42 720.134 1548.58 706.464 1547.71C675.874 1545.76 646.044 1540.04 616.744 1530.46C588.214 1521.14 561.394 1508.58 536.144 1492.7C517.284 1480.84 500.494 1466.25 484.934 1450.18C469.304 1434.04 456.144 1416.1 446.004 1396.24C433.294 1371.34 424.224 1345.18 421.154 1316.95C418.364 1291.24 419.244 1265.79 422.684 1240.35C427.504 1204.72 442.304 1174.14 468.254 1148.75C484.944 1132.42 503.204 1118.34 522.424 1105.29C538.614 1094.29 554.954 1083.49 570.664 1071.83C596.624 1052.56 620.774 1031.29 637.024 1002.71C646.204 986.575 653.664 969.565 657.574 951.265C661.044 935.035 663.574 918.575 667.004 902.375C671.354 881.795 675.044 860.575 688.234 842.965C696.034 832.555 704.584 823.075 718.554 817.105V817.105Z" fill="#092792"/>
<path d="M-82.1562 772.988C-72.3763 772.508 -63.5063 768.358 -54.4062 765.498C-41.6362 761.488 -28.6063 758.788 -15.4863 757.488C6.28375 755.328 28.0037 755.148 50.0237 757.928C78.0437 761.458 104.884 768.308 130.674 779.178C175.574 798.098 214.174 825.858 243.704 865.068C273.424 904.538 285.804 949.288 280.774 998.398C277.904 1026.44 269.454 1053.06 254.794 1077.34C241.614 1099.17 221.664 1113.35 199.454 1124.69C176.334 1136.49 151.634 1144.57 127.754 1154.57C102.754 1165.04 79.2937 1177.73 60.5437 1198.11C46.3437 1213.55 36.1038 1231.25 28.2238 1250.41C22.3938 1264.57 16.4538 1278.67 8.72375 1291.86C-1.33625 1309.03 -16.4262 1319.75 -35.6262 1324.98C-50.9362 1329.15 -66.5162 1329.11 -82.1463 1328.8V772.988H-82.1562Z" fill="#F5D755"/>
</g>
<defs>
<clipPath id="clip0_1117_380">
<rect width="531" height="1409" fill="white"/>
</clipPath>
</defs>
</svg>
