<svg width="1440" height="2983" viewBox="0 0 1440 2983" fill="none" xmlns="http://www.w3.org/2000/svg">
<g clip-path="url(#clip0_1117_369)">
<rect width="1440" height="2983" fill="white"/>
<path d="M0.100313 2049.32C2.40031 2049.36 3.82031 2047.8 4.84031 2046.16C19.9503 2021.88 44.0303 2011.1 69.9203 2003.81C95.1003 1996.72 120.85 1992.48 147.06 1990.72C173.61 1988.94 200.2 1986.81 226.65 1989.58C262.39 1993.33 297.53 2000.49 328.79 2019.66C358.46 2037.85 378.34 2063.69 384.47 2098.39C387.27 2114.24 384.21 2130.08 377.25 2144.93C370.5 2159.32 362.3 2172.93 355.51 2187.32C349.85 2199.3 348.33 2211.67 349.18 2224.2C349.85 2234.08 356.65 2241.64 363.53 2248.63C372.37 2257.62 382.33 2265.45 390.22 2275.44C401.69 2289.99 402.51 2305.23 395.65 2322.08C385.63 2346.67 369.18 2366.08 349.77 2383.62C337.73 2394.5 325 2404.67 314.66 2417.42C303.3 2431.43 296.09 2447.25 293.06 2464.83C291.89 2471.65 293.74 2478.65 296.98 2485.08C302.97 2496.96 310.27 2508.07 317.03 2519.49C325.49 2533.77 333.26 2548.26 335.88 2565.13C338.51 2582.09 336.09 2598.18 329.77 2613.79C322 2632.98 308.52 2647.94 293.27 2661.46C273.3 2679.17 250.79 2693.12 227.82 2706.52C193.35 2726.62 156.42 2738.85 117.1 2745.43C83.0203 2751.13 49.1203 2751.15 14.9703 2747.86C10.0303 2747.38 5.09031 2746.37 0.0703125 2747.09V2049.33L0.100313 2049.32Z" fill="#092792"/>
<path d="M0.02 -14.0958C4 -14.2058 7.99 -14.4158 11.97 -14.4158C219.18 -14.4358 426.39 -14.4358 633.6 -14.3858C637.83 -14.3858 642.19 -15.2258 646.32 -13.5358C647.94 -10.0658 645.06 -8.50585 643.38 -6.85585C629.67 6.60415 615.04 18.9542 600.17 31.1542C577.4 49.8342 553.15 66.7641 532.08 87.5241C527.12 92.4141 521.56 96.6841 516.61 101.584C503.65 114.394 491.68 128.174 481.69 143.374C467.98 164.254 458.28 187.274 452.16 211.364C447.62 229.244 444.88 247.664 443.41 266.194C441.42 291.304 438.83 316.474 430.85 340.464C422.3 366.164 406.05 386.314 382.54 400.124C359.54 413.634 334.51 421.594 308.78 428.284C289.89 433.194 270.41 434.914 251.7 440.694C244.29 442.984 235.93 443.004 228.08 443.454C203.58 444.884 179.22 449.254 154.54 447.534C134.04 446.104 113.3 445.164 93.36 440.694C61.07 433.454 29.71 422.944 3.68 400.944C2.77 400.174 1.24 400.134 0 399.754C0 261.804 0 123.844 0 -14.1058L0.02 -14.0958Z" fill="#F5D755"/>
<path d="M0.0996094 1287.58C9.87961 1287.1 18.7496 1282.95 27.8496 1280.09C40.6196 1276.08 53.6496 1273.38 66.7696 1272.08C88.5396 1269.92 110.26 1269.74 132.28 1272.52C160.3 1276.05 187.14 1282.9 212.93 1293.77C257.83 1312.69 296.43 1340.45 325.96 1379.66C355.68 1419.13 368.06 1463.88 363.03 1512.99C360.16 1541.03 351.71 1567.65 337.05 1591.93C323.87 1613.76 303.92 1627.94 281.71 1639.28C258.59 1651.08 233.89 1659.16 210.01 1669.16C185.01 1679.63 161.55 1692.32 142.8 1712.7C128.6 1728.14 118.36 1745.84 110.48 1765C104.65 1779.16 98.7096 1793.26 90.9796 1806.45C80.9196 1823.62 65.8296 1834.34 46.6296 1839.57C31.3196 1843.74 15.7396 1843.7 0.109609 1843.39V1287.58H0.0996094Z" fill="#F5D755"/>
<path d="M0.0996094 601.82C3.61961 604.1 5.50961 600.8 7.82961 599.4C24.4596 589.44 41.8096 581.32 61.0596 577.83C85.1396 573.46 107.92 578.34 130.17 587.29C150.88 595.62 170.16 606.76 189.69 617.41C202.23 624.25 214.81 631.02 227.43 637.71C239.43 644.07 252.48 648.51 265.79 645.99C295.71 640.33 314.28 656.42 330.71 677.48C344.56 695.23 349.59 716.19 350.93 738.09C352.31 760.62 348.61 782.51 340.5 803.62C332.39 824.73 317.96 841.1 301.38 855.77C265.33 887.66 222.56 903.13 175.09 905.96C115.03 909.54 59.1896 895.13 7.38961 864.66C5.11961 863.32 2.93961 861.68 0.0996094 861.73V601.82V601.82Z" fill="#092792"/>
<path d="M1201.93 2983C1203.26 2980.98 1202.04 2979.13 1201.39 2977.36C1187.75 2940.56 1192.75 2905.77 1214 2873.51C1238.83 2835.83 1272.96 2808.8 1314.07 2790.71C1345.48 2776.89 1376.94 2779.35 1408.02 2792.2C1416.91 2795.88 1425.38 2800.62 1434.34 2804.12C1440.78 2806.63 1442.17 2810.66 1442.14 2817.15C1441.87 2864.45 1442.02 2911.76 1441.97 2959.06C1441.97 2967.04 1441.66 2975.02 1441.5 2983H1201.93V2983Z" fill="#092792"/>
<path d="M1295.22 -105.448C1483.44 -105.448 1671.68 -105.448 1859.9 -105.448C1864.02 -105.448 1868.19 -105.005 1872.24 -105.536C1881.81 -106.756 1884.91 -102.335 1883.85 -93.456C1883.51 -90.5554 1883.79 -87.5663 1883.79 -84.6303C1883.79 145.703 1883.63 376.037 1884.15 606.37C1884.18 621.722 1879.71 630.742 1866.8 639.143C1789.38 689.533 1703.83 709.802 1612.71 708.404C1584.2 707.962 1555.33 706.866 1527.67 696.926C1488.05 682.688 1453.05 661.429 1420.76 634.315C1379.18 599.401 1344.72 557.802 1307.51 518.768C1279.12 489.001 1250.47 459.694 1217.27 435.004C1189.17 414.098 1158.75 398.322 1125.78 387.108C1088.25 374.321 1049.43 370.501 1010 368.944C974.31 367.529 938.388 367.6 903.05 361.604C852.855 353.097 814.369 326.956 787.539 283.323C771.497 257.235 759.505 229.396 749.725 200.549C741.659 176.743 734.302 152.689 727.156 128.6C723.814 117.387 721.337 105.714 719.392 94.3233C713.308 58.4194 706.392 22.657 702.041 -13.5653C698.769 -40.7851 703.102 -67.6688 702.254 -94.694C702.041 -101.769 705.278 -105.731 712.83 -105.448C717.535 -105.271 722.239 -105.448 726.944 -105.448C916.351 -105.448 1105.76 -105.448 1295.16 -105.448H1295.22Z" fill="#092792"/>
<path d="M1479.42 884.775C1479.42 921.405 1479.33 958.035 1479.52 994.665C1479.55 1000.42 1478.03 1004.58 1473.6 1008.54C1452.01 1027.83 1432.46 1049.17 1412.72 1070.32C1384.75 1100.29 1352.16 1123.1 1312.2 1134.08C1293.09 1139.33 1273.84 1141.79 1254.26 1135.84C1240.76 1131.74 1229.71 1124.71 1221.57 1112.85C1213.68 1101.34 1207.12 1088.95 1198.16 1078.13C1192.3 1071.05 1185.51 1065.49 1177.31 1061.5C1162.16 1054.12 1146.22 1049.92 1129.33 1049.76C1114.37 1049.62 1099.41 1049.85 1084.45 1049.62C1064.85 1049.31 1047.28 1043.35 1032.47 1030.07C1025 1023.36 1018.45 1015.75 1013.18 1007.34C1001.14 988.115 990.553 968.175 986.803 945.325C980.963 909.655 987.993 877.865 1014.72 852.085C1025.67 841.525 1038.71 834.255 1053.4 830.265C1079.67 823.145 1106.4 817.965 1132.86 811.655C1164.81 804.035 1196.88 796.705 1226.47 781.505C1238.55 775.295 1248.43 766.815 1257.14 756.515C1275.56 734.755 1296.58 716.095 1322.42 703.425C1355.93 686.985 1388.55 689.155 1420.19 708.375C1443.01 722.235 1460.72 741.525 1476.81 762.525C1479.78 766.405 1479.39 770.625 1479.39 774.895C1479.42 811.525 1479.41 848.155 1479.41 884.785L1479.42 884.775Z" fill="#F5D755"/>
<path d="M1441.82 2186.32C1441.82 2235.62 1441.72 2284.93 1441.94 2334.23C1441.97 2341.02 1440.02 2345.97 1435.35 2351.02C1423.6 2363.73 1411.69 2376.26 1399.29 2388.34C1374.73 2412.26 1345.97 2428.95 1313.06 2438.37C1294.61 2443.66 1275.91 2445.66 1256.96 2441.03C1242.16 2437.42 1230.09 2429.75 1221.66 2416.81C1217.12 2409.84 1212.3 2403.03 1208.13 2395.84C1192.88 2369.57 1168.86 2358.22 1139.91 2355.14C1123.41 2353.39 1106.9 2354.29 1090.35 2354.56C1057.12 2355.1 1031.48 2340.58 1013.8 2312.35C1004.07 2296.82 994.78 2280.97 990.13 2263.03C981.99 2231.6 982.47 2201 1001.31 2173C1015.28 2152.24 1034.99 2139.49 1059.15 2133.27C1102.23 2122.19 1146.26 2114.98 1188.73 2101.42C1207.46 2095.44 1225.69 2088.3 1241.84 2076.66C1246.76 2073.12 1251.09 2069.03 1254.9 2064.41C1267.66 2048.95 1281.62 2034.66 1297.84 2022.91C1318.05 2008.27 1339.92 1997.56 1365.7 1997.12C1390.45 1996.7 1411.67 2005.97 1431.29 2020.04C1432.37 2020.81 1433.28 2021.87 1434.43 2022.5C1440.38 2025.76 1442.05 2030.67 1441.99 2037.4C1441.69 2073.38 1441.85 2109.35 1441.85 2145.33C1441.85 2158.99 1441.85 2172.65 1441.85 2186.3L1441.82 2186.32Z" fill="#F5D755"/>
<path d="M1441.99 1139.3C1441.99 1144.38 1441.99 1148.03 1441.99 1151.67C1441.99 1387.17 1442 1622.67 1441.96 1858.17C1441.96 1872.62 1443.57 1870.78 1429.9 1869.91C1399.31 1867.96 1369.48 1862.24 1340.18 1852.66C1311.65 1843.34 1284.83 1830.78 1259.58 1814.9C1240.72 1803.04 1223.93 1788.45 1208.37 1772.38C1192.74 1756.24 1179.58 1738.3 1169.44 1718.44C1156.73 1693.54 1147.66 1667.38 1144.59 1639.15C1141.8 1613.44 1142.68 1587.99 1146.12 1562.55C1150.94 1526.92 1165.74 1496.34 1191.69 1470.95C1208.38 1454.62 1226.64 1440.54 1245.86 1427.49C1262.05 1416.49 1278.39 1405.69 1294.1 1394.03C1320.06 1374.76 1344.21 1353.49 1360.46 1324.91C1369.64 1308.77 1377.1 1291.76 1381.01 1273.46C1384.48 1257.23 1387.01 1240.77 1390.44 1224.57C1394.79 1203.99 1398.48 1182.77 1411.67 1165.16C1419.47 1154.75 1428.02 1145.27 1441.99 1139.3V1139.3Z" fill="#092792"/>
</g>
<defs>
<clipPath id="clip0_1117_369">
<rect width="1440" height="2983" fill="white"/>
</clipPath>
</defs>
</svg>
