<svg width="23" height="22" viewBox="0 0 23 22" fill="none" xmlns="http://www.w3.org/2000/svg">
<path d="M11.4678 2.14729C14.3086 2.14729 14.6455 2.15793 15.768 2.20936C18.6513 2.34058 19.9981 3.70866 20.1294 6.57073C20.1808 7.69233 20.1905 8.02925 20.1905 10.87C20.1905 13.7117 20.1799 14.0478 20.1294 15.1694C19.9973 18.0288 18.654 19.3995 15.768 19.5307C14.6455 19.5822 14.3104 19.5928 11.4678 19.5928C8.627 19.5928 8.29008 19.5822 7.16848 19.5307C4.27804 19.3986 2.93833 18.0243 2.8071 15.1685C2.75568 14.0469 2.74504 13.7108 2.74504 10.8692C2.74504 8.02837 2.75656 7.69233 2.8071 6.56985C2.93921 3.70866 4.28247 2.33969 7.16848 2.20847C8.29096 2.15793 8.627 2.14729 11.4678 2.14729V2.14729ZM11.4678 0.229492C8.57823 0.229492 8.21648 0.241905 7.08159 0.29333C3.21762 0.470658 1.07018 2.61455 0.89285 6.48207C0.840538 7.61785 0.828125 7.9796 0.828125 10.8692C0.828125 13.7587 0.840538 14.1213 0.891963 15.2562C1.06929 19.1202 3.21318 21.2677 7.0807 21.445C8.21648 21.4964 8.57823 21.5088 11.4678 21.5088C14.3573 21.5088 14.72 21.4964 15.8549 21.445C19.7153 21.2677 21.8681 19.1238 22.0427 15.2562C22.095 14.1213 22.1075 13.7587 22.1075 10.8692C22.1075 7.9796 22.095 7.61785 22.0436 6.48295C21.8698 2.62253 19.7233 0.471545 15.8558 0.294217C14.72 0.241905 14.3573 0.229492 11.4678 0.229492V0.229492ZM11.4678 5.40569C8.45056 5.40569 6.00432 7.85192 6.00432 10.8692C6.00432 13.8864 8.45056 16.3335 11.4678 16.3335C14.485 16.3335 16.9313 13.8873 16.9313 10.8692C16.9313 7.85192 14.485 5.40569 11.4678 5.40569ZM11.4678 14.4157C9.5092 14.4157 7.92123 12.8286 7.92123 10.8692C7.92123 8.91057 9.5092 7.3226 11.4678 7.3226C13.4264 7.3226 15.0143 8.91057 15.0143 10.8692C15.0143 12.8286 13.4264 14.4157 11.4678 14.4157ZM17.1476 3.91348C16.4418 3.91348 15.8699 4.48536 15.8699 5.19024C15.8699 5.89511 16.4418 6.46699 17.1476 6.46699C17.8525 6.46699 18.4235 5.89511 18.4235 5.19024C18.4235 4.48536 17.8525 3.91348 17.1476 3.91348Z" fill="white"/>
</svg>
