<svg width="22" height="18" viewBox="0 0 22 18" fill="none" xmlns="http://www.w3.org/2000/svg">
<path d="M21.6446 2.26991C20.8617 2.61747 20.0202 2.85154 19.1371 2.95705C20.0389 2.41709 20.7313 1.56148 21.0567 0.541846C20.2135 1.04191 19.279 1.40543 18.2842 1.60138C17.4889 0.752866 16.3531 0.222656 15.0976 0.222656C12.279 0.222656 10.2078 2.85243 10.8444 5.58239C7.21718 5.40063 4.00045 3.66281 1.84681 1.02152C0.703044 2.98365 1.25365 5.55047 3.19716 6.85028C2.48253 6.82723 1.80868 6.63128 1.22084 6.30411C1.17296 8.32653 2.62262 10.2186 4.72218 10.6398C4.10774 10.8065 3.43478 10.8455 2.75029 10.7143C3.30533 12.4485 4.91724 13.7102 6.82883 13.7457C4.99349 15.1847 2.68113 15.8275 0.365234 15.5544C2.29722 16.793 4.59273 17.5157 7.05758 17.5157C15.1632 17.5157 19.7427 10.6699 19.4661 4.52995C20.319 3.91373 21.0594 3.14502 21.6446 2.26991V2.26991Z" fill="white"/>
</svg>
